<svg xmlns:inkscape="http://www.inkscape.org/namespaces/inkscape" xmlns:sodipodi="http://sodipodi.sourceforge.net/DTD/sodipodi-0.dtd" xmlns:xlink="http://www.w3.org/1999/xlink" xmlns="http://www.w3.org/2000/svg" xmlns:svg="http://www.w3.org/2000/svg" width="117.39566mm" height="136.46332mm" viewBox="0 0 117.39566 136.46332" id="svg6548" inkscape:version="1.1.1 (c3084ef, 2021-09-22)" sodipodi:docname="logo.svg"><defs id="defs6545"><linearGradient inkscape:collect="always" xlink:href="#linearGradient2870" id="linearGradient5152" x1="165.0303" y1="11.659149" x2="172.10191" y2="390.81219" gradientUnits="userSpaceOnUse" gradientTransform="matrix(0.35277777,0,0,0.35277777,51.710434,98.783866)"></linearGradient><linearGradient inkscape:collect="always" id="linearGradient2870"><stop style="stop-color:#575757;stop-opacity:1" offset="0" id="stop2866"></stop><stop style="stop-color:#ffffff;stop-opacity:1" offset="0.39288563" id="stop2938"></stop><stop style="stop-color:#575757;stop-opacity:1" offset="0.5579794" id="stop2940"></stop><stop style="stop-color:#ffffff;stop-opacity:1" offset="0.73621863" id="stop2942"></stop><stop style="stop-color:#575757;stop-opacity:1" offset="1" id="stop2868"></stop></linearGradient><linearGradient inkscape:collect="always" xlink:href="#linearGradient2870" id="linearGradient6305" x1="-0.40104279" y1="202.07491" x2="330.17273" y2="202.07491" gradientUnits="userSpaceOnUse" gradientTransform="matrix(0.35277777,0,0,0.35277777,51.710434,99.313266)"></linearGradient><linearGradient inkscape:collect="always" xlink:href="#linearGradient3894" id="linearGradient5124" x1="164.74998" y1="13.16797" x2="165.24219" y2="393.98633" gradientUnits="userSpaceOnUse" gradientTransform="matrix(0.35277777,0,0,0.35277777,51.710434,98.783866)"></linearGradient><linearGradient inkscape:collect="always" id="linearGradient3894"><stop style="stop-color:#ffffff;stop-opacity:1;" offset="0" id="stop3890"></stop><stop style="stop-color:#ffffff;stop-opacity:0;" offset="1" id="stop3892"></stop></linearGradient></defs><g inkscape:label="Layer 1" inkscape:groupmode="layer" id="layer1" transform="translate(-51.179769,-102.36779)"><path id="path5126" style="fill:url(#linearGradient5152);fill-opacity:1;stroke:url(#linearGradient6305);stroke-width:1.05833;stroke-miterlimit:4;stroke-dasharray:none;stroke-opacity:1" d="m 109.92975,102.89696 c -0.1707,-1.9e-4 -0.34445,0.0215 -0.52117,0.0707 -1.10044,0.27651 -2.10746,1.0777 -3.09781,1.62227 -17.837985,10.56113 -35.822777,20.99517 -53.688977,31.52528 -0.378061,0.24547 -0.632019,0.65173 -0.911359,1.00725 0.03956,4.83335 0.0284,9.66413 0.01976,14.49749 1.230153,0.002 1.989239,-0.70843 2.996529,-1.27839 3.857082,-2.2488 7.711369,-4.50861 11.557176,-6.77716 0.64891,-0.37527 1.289382,-0.81293 1.983493,-1.10355 0.581241,-0.23418 1.063543,-0.0168 1.571413,0.26535 24.80725,14.61574 49.707815,29.13266 74.529185,43.72018 0.84928,0.47685 1.67594,1.07235 2.58445,1.42223 0.71955,-0.0198 0.54177,-0.65473 0.63489,-1.17671 -0.0536,-3.479 -0.0932,-6.96351 -0.0171,-10.44533 0.006,-0.95086 0.14386,-2.08779 -0.19468,-2.98787 -0.26243,-0.66307 -0.81821,-1.04962 -1.3966,-1.41643 -21.31134,-12.41494 -42.61442,-24.89791 -63.883425,-37.38901 0.7562,-0.54456 1.52091,-1.06935 2.33073,-1.52927 12.34155,-7.22605 24.686025,-14.45214 37.052985,-21.63586 0.4091,-0.25112 0.81265,-0.49906 1.09485,-0.8969 0.0987,-0.50789 -0.64349,-0.82674 -0.98205,-1.07504 -3.25326,-1.78888 -6.4529,-3.66529 -9.60176,-5.63474 -0.63732,-0.37139 -1.32128,-0.78364 -2.06082,-0.78447 z m 20.63524,11.94939 c -0.84928,0.13261 -1.67028,0.72247 -2.40675,1.14571 -9.65259,5.68829 -19.33378,11.33122 -29.006125,16.98564 -0.61791,0.37246 -1.36549,0.71681 -1.8508,1.25854 -0.1947,0.40915 0.65183,0.79846 0.91422,1.00726 18.317645,10.7389 36.640885,21.50317 54.983865,32.19693 0.54743,0.33577 1.17405,0.70827 1.44209,1.32054 0.29343,0.82108 0.21997,1.82564 0.22281,2.68904 -0.11573,3.94738 -0.025,7.90322 -0.0422,11.8506 -0.005,3.67087 -0.0677,7.3361 0.0478,11.00414 -0.0114,0.83236 0.0592,1.95524 -0.50797,2.63241 -0.48811,0.5361 -1.22181,0.90283 -1.84255,1.26682 -6.42191,3.72165 -12.8072,7.49677 -19.19526,11.27484 -0.78436,0.45429 -1.58859,1.02722 -2.46045,1.29245 -0.63204,0.12696 -1.14271,-0.11829 -1.676,-0.41456 -18.09192,-10.70222 -36.277015,-21.26903 -54.371745,-31.97125 -0.65741,-0.37809 -1.34573,-0.83545 -2.0765,-1.05272 -0.203191,0.0734 -0.341533,0.24281 -0.412078,0.51085 -0.183413,0.84367 -0.05617,1.77473 -0.05333,2.6353 0.0536,3.10092 0.07032,6.2103 -0.04272,9.31121 -0.01122,0.97909 -0.04226,1.899 0.600958,2.70597 0.70822,0.85776 1.90199,1.38799 2.84152,1.96077 17.46276,10.17743 34.900045,20.39995 52.317625,30.65073 0.78437,0.44016 1.64789,1.1063 2.57616,1.10066 0.91134,-0.0339 1.77466,-0.69722 2.5506,-1.13455 11.07753,-6.52067 22.16902,-13.02427 33.28601,-19.48002 0.67435,-0.41196 1.31778,-0.76448 1.53505,-1.58838 0.158,-0.76182 0.0846,-1.58865 0.0959,-2.36458 -0.0137,-13.16828 -0.008,-26.33657 0,-39.50766 -0.0114,-0.69412 -0.082,-1.33728 -0.64355,-1.81694 -0.80981,-0.63486 -1.78052,-1.06964 -2.65514,-1.60575 -12.90313,-7.48843 -25.74967,-15.07569 -38.62736,-22.61211 -0.89159,-0.51071 -1.77463,-1.02964 -2.58438,-1.66731 1.00723,-1.10324 2.39845,-1.55756 3.71892,-2.37864 0.91141,-0.49378 1.75779,-1.29782 2.74815,-1.59127 0.855,-0.1834 1.75239,0.29881 2.48036,0.70512 10.36079,6.11999 20.76112,12.17515 31.13887,18.26693 1.34871,0.76464 2.6183,1.60272 4.01781,2.26579 0.31881,-0.49095 0.44278,-0.80991 0.41454,-1.40528 -0.0478,-3.85708 -0.0565,-7.717 -0.005,-11.57409 -0.0137,-0.62356 0.0512,-1.36531 -0.26201,-1.92398 -0.32735,-0.60382 -0.98789,-0.94263 -1.55782,-1.27839 -2.75953,-1.54341 -5.43444,-3.23897 -8.1742,-4.81059 -8.41673,-4.93211 -16.83612,-9.85327 -25.23878,-14.81077 -0.68566,-0.39503 -1.45586,-0.93091 -2.24302,-1.04941 z m -61.896571,36.2656 c -0.31587,0.01 -0.64208,0.10677 -0.996555,0.32157 -4.274675,2.50837 -8.509635,5.03943 -12.818152,7.50829 -1.249969,0.78441 -2.503039,1.08337 -3.120951,2.56753 0.01711,14.0599 0.01711,28.11979 0,42.17686 0.378108,0.7054 0.702691,1.31802 1.453201,1.69047 18.168108,10.60629 36.319503,21.22655 54.459388,31.88362 0.58691,0.3386 1.17933,0.74489 1.81985,0.97627 0.65457,0.19468 1.18486,-0.0509 1.73505,-0.3782 3.05861,-1.85377 6.15382,-3.64823 9.24343,-5.45121 0.71104,-0.45428 1.98107,-0.70822 2.06289,-1.69296 -0.30473,-0.56995 -0.82414,-0.74225 -1.36024,-1.03288 -0.86905,-0.42605 -1.69299,-0.92548 -2.52539,-1.41642 -17.25951,-10.11817 -34.510535,-20.25608 -51.795506,-30.32626 -0.939581,-0.54739 -1.780261,-1.05224 -1.864914,-2.25423 -0.01393,-7.96248 0.02515,-15.99285 -0.01393,-23.9525 0.04526,-1.23586 -0.271074,-2.4886 0.626177,-3.48179 0.815436,-0.83519 2.008967,-1.63077 3.20529,-1.67311 1.052448,-0.0451 1.73834,0.63214 2.565004,1.15978 18.859434,11.03516 37.743979,22.0928 56.575179,33.17028 0.82953,0.48814 1.67042,1.05232 2.65513,1.15109 0.95931,-0.0677 1.81443,-0.70511 2.61295,-1.19324 2.91472,-1.80863 5.89401,-3.51864 8.87647,-5.21441 0.474,-0.2624 0.83808,-0.62938 1.19362,-1.03288 -1.1597,-1.01858 -2.65521,-1.70104 -3.97568,-2.52494 -10.14357,-5.93095 -20.20516,-12.003 -30.38536,-17.8747 -5.93659,-3.33791 -11.791355,-6.81969 -17.677135,-10.25354 -6.99748,-4.09975 -13.99241,-8.19988 -20.975788,-12.3222 -0.550203,-0.32272 -1.047552,-0.54704 -1.573935,-0.53029 z"></path><path id="path835" style="fill:url(#linearGradient5124);fill-opacity:1;stroke-width:0.282158" d="m 109.88431,103.95795 c -1.09602,0.19574 -1.95781,0.95667 -2.91101,1.47517 -11.491455,6.7856 -23.005205,13.53305 -34.524283,20.27179 -6.4324,3.77124 -12.872319,7.53172 -19.287237,11.33108 -0.195116,0.18476 -0.460349,0.39137 -0.390284,0.69243 0.02819,4.18082 0.02721,8.36175 0.01932,12.54264 0.687535,-0.37628 1.328397,-0.83198 2.01899,-1.20399 4.151123,-2.42169 8.28965,-4.86509 12.437025,-7.29292 0.684407,-0.39162 1.52982,-0.64162 2.296389,-0.33655 0.891709,0.3113 1.647109,0.89944 2.47369,1.3421 24.538655,14.44764 49.1372,28.79332 73.68404,43.22696 0.27142,0.16424 0.54317,0.32816 0.81988,0.48337 -0.008,-1.37847 -0.0374,-2.75708 -0.0428,-4.13581 -0.0244,-2.58156 0.0119,-5.16345 0.0617,-7.74421 -0.008,-0.55357 -0.10031,-1.20335 -0.61837,-1.51795 -0.77123,-0.57514 -1.66825,-0.99571 -2.46138,-1.49306 -21.12649,-12.31395 -42.2221,-24.68081 -63.310315,-37.06032 1.46358,-1.05117 2.92737,-2.11061 4.51076,-2.97714 12.11475,-7.10031 24.241805,-14.17866 36.376115,-21.24427 0.15328,-0.11319 -0.29035,-0.21235 -0.38989,-0.31483 -3.21454,-1.76931 -6.36427,-3.65513 -9.48947,-5.57751 -0.3938,-0.2183 -0.80765,-0.47122 -1.2729,-0.46698 z m 20.61338,11.99306 c -0.91826,0.31812 -1.68771,0.93519 -2.53992,1.38661 -9.68993,5.70229 -19.401,11.36856 -29.106715,17.04396 1.418635,0.85287 2.856535,1.67291 4.280465,2.5174 16.90855,9.91504 33.81556,19.8327 50.74362,29.71414 0.86027,0.49969 1.71584,1.22557 1.89727,2.25675 0.2828,1.37887 0.10363,2.79283 0.11855,4.18778 -0.0687,4.48599 0.0259,8.97252 -0.0238,13.45869 -0.0187,2.72733 -7.1e-4,5.45495 0.0592,8.18156 0.007,1.04466 -0.0884,2.20401 -0.83587,3.00726 -0.88988,0.90032 -2.0834,1.38583 -3.13902,2.05263 -6.51117,3.78567 -12.99443,7.61885 -19.47588,11.45474 -0.7744,0.43554 -1.68183,0.82234 -2.58265,0.57579 -0.99544,-0.24543 -1.81509,-0.9003 -2.70207,-1.38198 -17.84692,-10.5377 -35.758035,-20.97309 -53.600675,-31.51343 -0.14651,-0.10177 -0.38483,-0.25504 -0.30339,0.0821 0.0991,2.94945 0.10253,5.90255 0.0572,8.85347 0.002,1.00121 -0.0946,2.00347 -0.0371,3.00364 0.0312,0.50834 0.24712,1.01047 0.66967,1.31311 0.84368,0.70257 1.86573,1.13561 2.78654,1.72233 17.2378,10.05256 34.453175,20.14345 51.652335,30.26219 0.69309,0.35347 1.31421,0.93017 2.11469,1.01223 0.78128,-0.0795 1.38894,-0.63717 2.06203,-0.98721 11.09787,-6.53074 22.20912,-13.03811 33.339,-19.51324 0.39793,-0.2519 1.01619,-0.53635 1.00811,-1.11336 0.0954,-1.06482 0.007,-2.13532 0.0368,-3.20266 -0.0147,-12.81872 0.002,-25.63754 -0.006,-38.45622 -0.009,-0.34613 -0.12049,-0.734 -0.46208,-0.88776 -1.0387,-0.69317 -2.16729,-1.23647 -3.22782,-1.89432 -12.95008,-7.53016 -25.85695,-15.13447 -38.78151,-22.70843 -0.89897,-0.53531 -1.72205,-1.18409 -2.55047,-1.82014 0.78904,-0.88847 1.64388,-1.7525 2.71745,-2.29313 1.12453,-0.61728 2.2759,-1.1951 3.31826,-1.94868 0.80539,-0.5507 1.74668,-1.08092 2.76015,-0.9279 1.33274,0.16064 2.43181,1.00114 3.57224,1.63529 10.44611,6.15893 20.92272,12.26635 31.38005,18.40601 0.43903,0.26036 0.84183,0.4991 1.29027,0.74503 -0.0587,-4.04642 -0.0381,-8.09442 -0.0102,-12.14132 0.002,-0.40509 -0.0806,-0.87388 -0.47236,-1.08449 -0.8389,-0.59166 -1.77649,-1.02263 -2.64481,-1.56822 -2.78602,-1.64622 -5.55614,-3.32029 -8.35864,-4.93806 -8.06289,-4.72021 -16.12079,-9.44918 -24.17465,-14.18451 -0.26238,-0.11601 -0.53405,-0.33566 -0.82838,-0.30767 z m -61.843588,36.22587 c -0.543977,0.12096 -0.962358,0.52727 -1.456286,0.76409 -4.19135,2.46385 -8.368716,4.95208 -12.592124,7.35971 -0.675576,0.36777 -1.449053,0.71601 -1.814876,1.43772 0.01538,13.89452 0.01541,27.78906 0,41.68359 0.234675,0.45957 0.556323,0.91014 1.049663,1.11184 18.355506,10.71889 36.702906,21.45177 55.028711,32.22148 0.37676,0.18205 0.73937,0.52821 1.18231,0.47028 0.60638,-0.18399 1.09298,-0.61776 1.65105,-0.90408 2.88299,-1.71713 5.77057,-3.42816 8.6861,-5.08948 0.24538,-0.1257 0.50534,-0.22156 0.74458,-0.35952 -1.33986,-0.67585 -2.63066,-1.44122 -3.92142,-2.20539 -17.0889,-10.02714 -34.180995,-20.04879 -51.292867,-30.03654 -0.962641,-0.54142 -1.842342,-1.4277 -1.974657,-2.57199 -0.09623,-0.81509 -0.01454,-1.63742 -0.0431,-2.45582 -0.0094,-7.60206 0.0286,-15.20444 -0.02426,-22.8063 -0.05693,-1.11983 0.07554,-2.36221 0.883527,-3.21312 0.897729,-0.96625 2.066202,-1.73336 3.371028,-1.99638 0.943377,-0.18569 1.949831,0.0143 2.741697,0.56294 0.667022,0.4341 1.317742,0.89275 2.021187,1.26842 18.80497,11.00279 37.601935,22.01912 56.384455,33.06017 0.45452,0.22067 0.93087,0.55004 1.45658,0.48231 0.92107,-0.24918 1.65037,-0.90237 2.47426,-1.35216 2.75706,-1.70095 5.57541,-3.2996 8.38331,-4.91447 -1.167,-0.75727 -2.40852,-1.39048 -3.59042,-2.12364 -10.32608,-6.04789 -20.57279,-12.23478 -30.95653,-18.1853 -6.61104,-3.75284 -13.145975,-7.63749 -19.710625,-11.4709 -5.96096,-3.49039 -11.9121,-6.99812 -17.870428,-10.49262 -0.250248,-0.12809 -0.520905,-0.27047 -0.810868,-0.24484 z"></path></g></svg>